# xmcd CD database file
#
# Track frame offsets:
#	150
#	30485
#	43163
#	62025
#	82324
#	104434
#	130371
#	156203
#	181917
#	197106
#
# Disc length: 3124 seconds
#
# Revision: 1
# Processed by: cddbd v1.5.2PL0 Copyright (c) Steve Scherf et al.
# Submitted via: CDex 1.78
#
DISCID=8c0c320a
DTITLE=Hot and Blue Jazz Band - Hot and Blue Jazz Band 2007 Live
DYEAR=2007
DGENRE=Jazz
TTITLE0=I Ain't Got Nobody
TTITLE1=At The Jazz Band Ball
TTITLE2=Buddy Boldens Blues
TTITLE3=Concession
TTITLE4=Who's Sorry Now?
TTITLE5=Doctor Jazz Stomp
TTITLE6=Struttin' With Some Barbecue
TTITLE7=When The Saints Go Marchin'In
TTITLE8=China Boy
TTITLE9=Tishomingo Blues
EXTD=YEAR: 2007
EXTT0=
EXTT1=
EXTT2=
EXTT3=
EXTT4=
EXTT5=
EXTT6=
EXTT7=
EXTT8=
EXTT9=
PLAYORDER=
